<svg width="20" height="21" viewBox="0 0 20 21" fill="none" xmlns="http://www.w3.org/2000/svg">
<path fill-rule="evenodd" clip-rule="evenodd" d="M15.2945 13.9344C15.1695 14.0455 15.0168 14.101 14.8502 14.0871C14.9196 14.2954 14.8641 14.5314 14.7114 14.6841C14.5586 14.8369 14.3226 14.8924 14.1144 14.8091C14.1005 14.9757 13.9894 15.1284 13.8367 15.1979C13.6701 15.2672 13.4757 15.2395 13.3369 15.1284C13.2674 15.2811 13.1008 15.3784 12.9342 15.3645C12.9342 15.4616 12.9064 15.545 12.8509 15.6282C12.6704 16.0309 12.2122 16.2252 11.7957 16.0586C11.8096 16.4335 11.518 16.7529 11.1293 16.7667C10.9488 16.7667 10.7683 16.7112 10.6295 16.5724C10.5322 16.7945 10.3379 16.9334 10.1019 16.9472C9.8658 16.9611 9.64369 16.8362 9.53263 16.6279C9.39374 16.8084 9.17163 16.8917 8.94947 16.8362C8.72735 16.7806 8.56074 16.6001 8.51908 16.3919C8.35247 16.4613 8.17197 16.4474 8.03313 16.3364C7.8943 16.2252 7.82486 16.0586 7.85263 15.8781L7.67213 15.8643C7.47774 15.8087 7.36669 15.6005 7.40836 15.4061C7.28341 15.5311 7.13069 15.5866 6.95019 15.6005C6.49202 15.6421 6.10324 15.3228 6.06159 14.8924C5.82556 15.0312 5.534 15.0035 5.31185 14.8369C5.08971 14.6702 4.99252 14.3926 5.06194 14.1287C4.72872 14.1704 4.42327 13.9205 4.3955 13.5873C4.38162 13.4485 4.42327 13.2957 4.49269 13.1846C4.18724 13.143 3.9651 12.8514 4.00675 12.546C4.02064 12.4071 4.10394 12.2683 4.21501 12.185C4.07617 12.0739 4.00675 11.9073 4.03452 11.7268C4.06229 11.5464 4.18724 11.4075 4.35385 11.352C4.2289 11.1992 4.24278 10.9632 4.38162 10.8244H4.3955C4.29831 10.7688 4.21501 10.6994 4.14559 10.6022C3.88179 10.2412 3.95121 9.74141 4.29831 9.46375C4.06229 9.32486 3.92345 9.06108 3.9651 8.7973C3.99286 8.51964 4.18724 8.29747 4.45104 8.21414C4.3122 8.0198 4.29831 7.76986 4.40939 7.56164C4.52046 7.35336 4.75649 7.22842 4.99252 7.25614C4.90921 7.04792 4.96475 6.81186 5.11747 6.65914C5.2702 6.50642 5.50623 6.45086 5.71449 6.53419C5.72837 6.36758 5.83945 6.21486 6.00606 6.14544C6.17266 6.07602 6.35316 6.10378 6.49202 6.21486C6.56141 6.04825 6.72802 5.95106 6.89463 5.96494L6.90852 6.00659C6.90852 5.7428 7.04736 5.49288 7.26952 5.34016C7.49163 5.18744 7.76936 5.15967 8.01924 5.25686L8.06091 5.02083C8.1303 4.79868 8.32469 4.63207 8.54685 4.57654C8.76897 4.521 9.00502 4.59042 9.18552 4.74315C9.2688 4.521 9.47708 4.36828 9.72696 4.3544C9.96302 4.34051 10.1851 4.46547 10.2962 4.68761C10.4351 4.50712 10.6572 4.42381 10.8794 4.47935C11.1015 4.53488 11.2681 4.71538 11.3097 4.92364C11.4764 4.85422 11.6569 4.88199 11.7957 4.99306C11.9345 5.10413 12.004 5.28463 11.9623 5.45123C12.1706 5.40958 12.3789 5.54842 12.4205 5.75668C12.4344 5.81222 12.4344 5.85387 12.4205 5.90941C12.5455 5.78445 12.6982 5.72892 12.8787 5.70114C13.3369 5.67338 13.7117 5.99271 13.7534 6.42314C13.9894 6.28431 14.2949 6.29814 14.517 6.46475C14.7391 6.63136 14.8363 6.92297 14.7669 7.18675C15.1001 7.14508 15.4056 7.39503 15.4334 7.72819C15.4472 7.86708 15.4056 8.0198 15.3361 8.13086C15.5583 8.17253 15.7388 8.32525 15.7943 8.54736C15.8498 8.76953 15.7804 8.99169 15.6 9.13053C15.6971 9.19991 15.7666 9.31103 15.7943 9.42208C15.8221 9.65808 15.6971 9.88025 15.475 9.97741C15.6 10.1301 15.5861 10.3662 15.4472 10.505C15.6832 10.6439 15.836 10.8938 15.8498 11.1576C15.8637 11.4352 15.7388 11.6852 15.5305 11.8518C15.6 11.8934 15.6555 11.9351 15.711 12.0045C15.8637 12.185 15.9054 12.421 15.8498 12.6432C15.7804 12.8653 15.6138 13.0319 15.3917 13.1014C15.5722 13.379 15.5305 13.74 15.2945 13.9344ZM17.3632 4.46547L11.5875 1.13329C10.56 0.536278 9.28269 0.536278 8.25524 1.13329L2.4795 4.46547C1.45208 5.06248 0.813416 6.15932 0.813416 7.35336V14.0177C0.813416 15.2117 1.45208 16.3086 2.4795 16.9056L8.25524 20.2377C9.28269 20.8348 10.56 20.8348 11.5875 20.2377L17.3632 16.9056C18.3906 16.3086 19.0293 15.2117 19.0293 14.0177V7.33947C19.0293 6.15932 18.3906 5.06248 17.3632 4.46547ZM5.47846 9.65825C5.64507 9.88036 5.68672 10.1719 5.58953 10.4357C5.92275 10.4635 6.18655 10.7273 6.21432 11.0605C6.51974 10.9911 6.82519 11.1577 6.9363 11.4354C7.18619 11.2549 7.54719 11.2965 7.72769 11.5604L7.75547 11.5881L7.82485 11.5187C7.97758 11.3799 8.21363 11.366 8.39413 11.4909C8.42191 11.4076 8.46352 11.3382 8.51908 11.2827C8.6718 11.1577 8.86619 11.1438 9.01891 11.2549C9.04669 11.1577 9.12997 11.0883 9.22713 11.0744C9.15774 10.9634 9.12997 10.8384 9.11608 10.7134V10.7273C8.97724 10.769 8.83841 10.6995 8.79674 10.5746C8.79674 10.5607 8.79674 10.5607 8.78285 10.5468C8.65791 10.6162 8.50519 10.6301 8.38024 10.5607C8.2553 10.4912 8.17197 10.3663 8.15808 10.2275C8.0748 10.2552 7.9498 10.2691 7.85263 10.2275C7.61663 10.1442 7.49163 9.89425 7.56108 9.65825C7.3528 9.67214 7.15841 9.56103 7.04736 9.38053C6.9363 9.20008 6.95019 8.97791 7.06124 8.79742C6.83908 8.74186 6.65863 8.54753 6.61697 8.32536C6.56141 8.0893 6.64474 7.8533 6.82519 7.71447C6.56141 7.47842 6.53363 7.0758 6.74191 6.79814C6.72563 6.79814 6.71413 6.79336 6.70463 6.78942C6.69786 6.78664 6.69213 6.78425 6.68636 6.78425C6.65863 6.90919 6.56141 7.02025 6.45036 7.0758C6.33927 7.14519 6.20043 7.14519 6.07548 7.11747C6.0616 7.40903 5.81168 7.64503 5.52011 7.65892C5.60342 7.81164 5.61731 8.00603 5.54788 8.17264C5.47846 8.33925 5.33962 8.46419 5.17301 8.51975C5.39516 8.79741 5.38127 9.18619 5.13136 9.43608C5.25632 9.43608 5.38127 9.51941 5.47846 9.65825ZM9.57424 13.0043C9.25491 13.032 9.03274 13.3236 9.07441 13.6291C8.76897 13.5735 8.46352 13.7679 8.3663 14.0456C8.06085 13.9067 7.7138 14.0039 7.51941 14.2816L7.50552 14.2677C7.22786 13.9206 6.71413 13.879 6.36702 14.1566C6.28372 13.8234 5.93661 13.6013 5.58951 13.6568C5.61728 13.4902 5.57563 13.3097 5.46456 13.1709C5.35348 13.032 5.20076 12.9487 5.02027 12.9349C5.17299 12.685 5.08968 12.3517 4.83977 12.1851C4.95085 12.074 5.02027 11.9074 4.97861 11.7408C4.96473 11.6436 4.90919 11.5465 4.83977 11.477C4.86754 11.477 4.89531 11.4631 4.92308 11.4492C5.0758 11.7408 5.4229 11.8797 5.74223 11.7825C5.77001 12.0185 5.93661 12.199 6.14487 12.2823C6.35313 12.3656 6.58919 12.324 6.76963 12.1712C6.85297 12.324 6.9918 12.4489 7.1723 12.4767C7.3528 12.5045 7.5333 12.4489 7.65824 12.3379C7.69991 12.3101 7.7693 12.2406 7.78319 12.1851C7.89424 12.324 8.07474 12.3656 8.24135 12.324C8.40797 12.2823 8.53291 12.1435 8.57458 11.9769C8.71341 12.0463 8.86613 12.0601 9.00497 11.9769C9.14385 11.8935 9.21324 11.7547 9.21324 11.602C9.28269 11.6297 9.37985 11.602 9.43541 11.5465C9.49091 11.5048 9.51869 11.4354 9.53258 11.3799C9.65752 11.4492 9.79635 11.4909 9.93524 11.4909C9.90746 11.5326 9.90747 11.5881 9.90747 11.6297C9.92135 11.6853 9.93524 11.7408 9.97685 11.7686C9.81024 11.8519 9.72697 12.0324 9.75474 12.2129C9.75474 12.2823 9.81024 12.3656 9.8658 12.4211C9.67141 12.4906 9.56035 12.7127 9.60202 12.921L9.61591 13.0043H9.57424ZM10.7682 7.74219C10.7821 7.89492 10.7405 8.06153 10.6294 8.17264C10.5184 8.29758 10.3795 8.36697 10.2129 8.36697L10.2268 8.4503C10.2685 8.65858 10.1712 8.88069 9.97685 8.95014H9.96302C10.1296 9.11675 10.1296 9.38053 9.96302 9.53325C9.93524 9.56103 9.90746 9.5888 9.8658 9.60269C9.90746 9.65819 9.93524 9.71375 9.92135 9.78319C10.0602 9.78319 10.2129 9.8248 10.3379 9.90814C10.3934 9.79703 10.5045 9.74153 10.6294 9.7693C10.6294 9.61658 10.6989 9.47769 10.8377 9.39441C10.9765 9.31108 11.1292 9.32497 11.2681 9.39441C11.2681 9.29725 11.3236 9.21391 11.4069 9.14453C11.6152 8.97791 11.8929 8.99175 12.0456 9.18614C12.1984 8.90847 12.5315 8.8113 12.8092 8.95014C12.9064 9.00564 12.9897 9.08897 13.0452 9.18614C13.2257 9.03341 13.4618 8.99175 13.67 9.07508C13.8783 9.15836 14.0449 9.33886 14.0727 9.57491C14.392 9.46386 14.7391 9.60269 14.8919 9.90814L14.9612 9.86647C14.7669 9.68597 14.753 9.38053 14.9335 9.18614C14.9388 9.18086 14.9421 9.17553 14.9448 9.17103C14.9494 9.16369 14.9527 9.15836 14.9612 9.15836C14.7114 8.99175 14.628 8.65858 14.7807 8.40864C14.6003 8.40864 14.4337 8.32536 14.3226 8.17264C14.2115 8.03375 14.1699 7.8533 14.1976 7.6728C13.8505 7.7283 13.5034 7.50619 13.4201 7.17297C13.073 7.45064 12.5593 7.39508 12.2816 7.04803C12.0872 7.32569 11.7263 7.42286 11.4208 7.27014C11.3653 7.58947 11.0737 7.78386 10.7682 7.74219ZM7.74158 8.54747C7.93597 8.29758 7.90819 7.93658 7.68602 7.71447C7.96374 7.50619 8.04702 7.14519 7.90819 6.85364C8.35247 6.77036 8.64402 6.35381 8.57463 5.90953C8.92174 6.00672 9.2688 5.79846 9.37991 5.46524C9.51874 5.57631 9.69924 5.61796 9.86585 5.59019C10.0325 5.56242 10.1852 5.46524 10.2824 5.31251C10.449 5.56242 10.7683 5.64573 11.0321 5.49301C11.0737 5.65961 11.171 5.81234 11.3514 5.86787C11.4486 5.89564 11.5597 5.88176 11.6569 5.84011L11.6707 5.99283C11.3931 6.03448 11.1571 6.24275 11.1015 6.52042C10.8794 6.43714 10.6434 6.46486 10.4629 6.61764C10.2824 6.77036 10.1991 7.00636 10.2407 7.22853C10.0325 7.22853 9.83808 7.32569 9.72702 7.50619C9.6298 7.68669 9.61591 7.9088 9.72702 8.0893C9.56041 8.13097 9.42152 8.25592 9.37991 8.42253C9.33824 8.58914 9.3938 8.76964 9.51874 8.88069C9.3938 8.95014 9.31046 9.08897 9.31046 9.2278C9.31046 9.38053 9.37991 9.50553 9.50485 9.5888C9.46319 9.65825 9.42152 9.74153 9.43541 9.82486L9.47708 9.93591C9.36602 10.0192 9.2688 10.1303 9.19941 10.2552C9.12997 10.2136 9.04669 10.1858 8.96335 10.2136C8.97724 10.0747 8.92174 9.93591 8.81063 9.85258C8.69958 9.7693 8.54685 9.74152 8.42191 9.78319C8.44969 9.5888 8.3108 9.39441 8.10258 9.33891L8.01924 9.31114C8.08869 9.1723 8.10258 9.01958 8.04702 8.8668C7.99147 8.72797 7.88041 8.60303 7.74158 8.54747ZM14.2949 13.2403C14.3642 13.0737 14.5031 12.9487 14.6697 12.8932C14.4476 12.6155 14.4615 12.2267 14.7114 11.9769C14.5586 11.9352 14.4337 11.838 14.3504 11.7131H14.3365C14.1699 11.4909 14.1282 11.1994 14.2254 10.9356C13.8922 10.9078 13.6284 10.644 13.6006 10.3107C13.3091 10.3802 13.0036 10.2136 12.8926 9.93591C12.7676 10.0331 12.601 10.0747 12.4482 10.047C12.2955 10.0192 12.1567 9.92202 12.0734 9.78319L12.004 9.85258C11.8512 9.99141 11.6152 10.0053 11.4486 9.89425C11.4209 9.97758 11.3653 10.047 11.3097 10.1025C11.1709 10.2275 10.9627 10.2414 10.81 10.1303C10.7961 10.1997 10.7405 10.2552 10.6711 10.2969C10.7266 10.408 10.7683 10.5468 10.7683 10.6856H10.8794C10.9765 10.7134 11.0321 10.7828 11.046 10.8661C11.1709 10.7828 11.3236 10.7828 11.4625 10.8522C11.5875 10.9217 11.6846 11.0466 11.6846 11.1994C11.7818 11.1577 11.8929 11.1577 11.9901 11.1994C12.2261 11.2826 12.3511 11.5326 12.2816 11.7686C12.5038 11.7409 12.726 11.8519 12.837 12.0463C12.9481 12.2406 12.9342 12.4767 12.8092 12.6572C13.0175 12.7266 13.1702 12.9071 13.2119 13.1292C13.2535 13.3514 13.1841 13.5735 13.0175 13.7262C13.2813 13.9623 13.3091 14.3649 13.1008 14.6426L13.1702 14.6704C13.198 14.5454 13.2813 14.4344 13.4062 14.3788C13.5174 14.3094 13.6562 14.2955 13.7811 14.3371C13.795 14.0317 14.0449 13.7957 14.3365 13.7957C14.2393 13.6013 14.2393 13.4069 14.2949 13.2403ZM12.1012 12.8238C11.9068 13.0737 11.9346 13.4347 12.1567 13.6569C11.8929 13.8512 11.7957 14.2122 11.9207 14.5037C11.4764 14.5871 11.1848 15.0036 11.2542 15.4479C10.921 15.3646 10.5461 15.5451 10.449 15.8922C10.3101 15.7811 10.1435 15.7256 9.96302 15.7534C9.79641 15.7811 9.64369 15.8783 9.54652 16.031C9.37991 15.7811 9.06058 15.6978 8.79674 15.8505C8.76897 15.7117 8.68569 15.6006 8.57463 15.5312C8.46352 15.4617 8.3108 15.4479 8.18585 15.4895V15.5034L8.17197 15.3507C8.44963 15.309 8.68569 15.1008 8.74124 14.8231C8.8523 14.8647 8.96335 14.8647 9.07441 14.8509C9.42152 14.7954 9.64369 14.476 9.58813 14.1289C9.75474 14.1289 9.93524 14.0595 10.0463 13.9345C10.1713 13.7957 10.2129 13.6152 10.1851 13.4486C10.1851 13.3826 10.1678 13.3428 10.1467 13.2947C10.1412 13.282 10.1354 13.2687 10.1296 13.2542C10.2962 13.2125 10.4212 13.0876 10.4629 12.921C10.5045 12.7544 10.449 12.5739 10.324 12.4628C10.3795 12.435 10.4212 12.3795 10.4629 12.324C10.5878 12.1296 10.5184 11.8797 10.324 11.7547L10.3517 11.727C10.4351 11.6159 10.4351 11.4631 10.324 11.366C10.449 11.2965 10.56 11.1994 10.6295 11.0744C10.685 11.1299 10.7683 11.1577 10.8516 11.1438C10.8516 11.2827 10.9071 11.4076 11.0182 11.4909C11.1293 11.5742 11.282 11.602 11.407 11.5604V11.5742C11.3931 11.7686 11.518 11.963 11.7263 12.0185L11.8096 12.0463C11.7402 12.199 11.7263 12.3656 11.7819 12.5045C11.8374 12.6433 11.9484 12.7682 12.1012 12.8238Z" fill="#F05656"/>
</svg>
