<svg width="26" height="36" viewBox="0 0 26 36" fill="none" xmlns="http://www.w3.org/2000/svg">
<path d="M12.6673 35.1543L2.54091 32.3431L0.284302 7.03261H25.0806L22.8216 32.3392L12.6673 35.1543Z" fill="#264DE4"/>
<path d="M20.8876 30.7278L22.8181 9.10214H12.6824V33.0026L20.8876 30.7278Z" fill="#2965F1"/>
<path d="M5.45753 18.4895L5.73576 21.5937H12.6824V18.4895H5.45753Z" fill="#EBEBEB"/>
<path d="M4.89848 12.2064L5.18067 15.3107H12.6824V12.2064H4.89848Z" fill="#EBEBEB"/>
<path d="M12.6824 26.5515L12.6688 26.5551L9.21163 25.6216L8.99063 23.1458H5.87447L6.30937 28.0199L12.6682 29.7851L12.6824 29.7812V26.5515Z" fill="#EBEBEB"/>
<path d="M6.11995 0.154297H9.87972V1.72656H7.69221V3.29883H9.87972V4.87109H6.11995V0.154297Z" fill="black"/>
<path d="M10.6316 0.154297H14.3914V1.52148H12.2039V1.79492H14.3914V4.93945H10.6316V3.50391H12.8191V3.23047H10.6316V0.154297Z" fill="black"/>
<path d="M15.1434 0.154297H18.9032V1.52148H16.7157V1.79492H18.9032V4.93945H15.1434V3.50391H17.3309V3.23047H15.1434V0.154297Z" fill="black"/>
<path d="M19.8875 18.4895L20.4479 12.2064H12.6717V15.3107H17.0459L16.7634 18.4895H12.6717V21.5937H16.4942L16.1339 25.6196L12.6717 26.5541V29.7837L19.0356 28.0199L19.0823 27.4955L19.8117 19.323L19.8875 18.4895Z" fill="white"/>
</svg>
