<svg width="16" height="21" viewBox="0 0 16 21" fill="none" xmlns="http://www.w3.org/2000/svg">
<path d="M7.95058 20.8489L2.1641 19.2425L0.874603 4.77934H15.0439L13.753 19.2402L7.95058 20.8489Z" fill="#264DE4"/>
<path d="M12.6479 18.3194L13.751 5.96193H7.95924V19.6193L12.6479 18.3194Z" fill="#2965F1"/>
<path d="M3.83073 11.3261L3.98972 13.0999H7.95925V11.3261H3.83073Z" fill="#EBEBEB"/>
<path d="M3.51128 7.73579L3.67253 9.50966H7.95924V7.73579H3.51128Z" fill="#EBEBEB"/>
<path d="M7.95926 15.933L7.95148 15.935L5.97594 15.4016L5.84965 13.9869H4.06898L4.3175 16.7721L7.95109 17.7808L7.95926 17.7785V15.933Z" fill="#EBEBEB"/>
<path d="M4.20926 0.848877H6.3577V1.74731H5.1077V2.64575H6.3577V3.54419H4.20926V0.848877Z" fill="black"/>
<path d="M6.78737 0.848877H8.93581V1.63013H7.68581V1.78638H8.93581V3.58325H6.78737V2.76294H8.03737V2.60669H6.78737V0.848877Z" fill="black"/>
<path d="M9.36551 0.848877H11.5139V1.63013H10.2639V1.78638H11.5139V3.58325H9.36551V2.76294H10.6155V2.60669H9.36551V0.848877Z" fill="black"/>
<path d="M12.0764 11.3261L12.3966 7.73579H7.95312V9.50966H10.4527L10.2913 11.3261H7.95312V13.0999H10.1374L9.93152 15.4005L7.95312 15.9345V17.7799L11.5896 16.7721L11.6163 16.4724L12.0331 11.8024L12.0764 11.3261Z" fill="white"/>
</svg>
