<svg width="20" height="15" viewBox="0 0 20 15" fill="none" xmlns="http://www.w3.org/2000/svg">
<path d="M16.6367 1.25625C15.3824 0.669375 14.0412 0.242861 12.639 0C12.4668 0.311339 12.2656 0.730097 12.1269 1.06322C10.6364 0.839056 9.15953 0.839056 7.69638 1.06322C7.5577 0.730097 7.35195 0.311339 7.1782 0C5.77451 0.242861 4.43177 0.670942 3.17744 1.25935C0.647436 5.08252 -0.0384061 8.81073 0.304516 12.486C1.98255 13.7391 3.60876 14.5003 5.20753 14.9985C5.60228 14.4552 5.95434 13.8777 6.25763 13.269C5.68 13.0495 5.12675 12.7787 4.604 12.4642C4.74269 12.3615 4.87834 12.254 5.0094 12.1435C8.1978 13.6348 11.6621 13.6348 14.8124 12.1435C14.945 12.254 15.0806 12.3615 15.2178 12.4642C14.6935 12.7802 14.1387 13.0511 13.5611 13.2706C13.8644 13.8777 14.215 14.4567 14.6112 15C16.2115 14.5019 17.8392 13.7407 19.5173 12.486C19.9196 8.22542 18.8299 4.53146 16.6367 1.25625ZM6.692 10.2257C5.73488 10.2257 4.94995 9.3322 4.94995 8.2441C4.94995 7.15599 5.71812 6.26091 6.692 6.26091C7.66592 6.26091 8.45081 7.15442 8.43405 8.2441C8.43556 9.3322 7.66592 10.2257 6.692 10.2257ZM13.1298 10.2257C12.1727 10.2257 11.3877 9.3322 11.3877 8.2441C11.3877 7.15599 12.1559 6.26091 13.1298 6.26091C14.1037 6.26091 14.8886 7.15442 14.8718 8.2441C14.8718 9.3322 14.1037 10.2257 13.1298 10.2257Z" fill="#0A66C2" stroke="black" stroke-width="0.000355556"/>
</svg>
