<svg width="14" height="13" viewBox="0 0 14 13" fill="none" xmlns="http://www.w3.org/2000/svg">
<path fill-rule="evenodd" clip-rule="evenodd" d="M3.72652 0.495857C2.67897 0.495857 1.7317 0.757671 1.04414 1.39612C0.350055 2.04063 -0.00321198 2.99773 -0.00321198 4.22559V8.76613C-0.00321198 9.99402 0.350055 10.9511 1.04414 11.5956C1.7317 12.2341 2.67897 12.4959 3.72652 12.4959H10.213C11.2606 12.4959 12.2079 12.2341 12.8954 11.5956C13.5895 10.9511 13.9427 9.99402 13.9427 8.76613V4.22559C13.9427 2.99773 13.5895 2.04063 12.8954 1.39612C12.2079 0.757671 11.2606 0.495857 10.213 0.495857H3.72652ZM11.6585 4.13627C11.8711 3.97199 11.9103 3.66646 11.746 3.45386C11.5817 3.24126 11.2762 3.20208 11.0636 3.36637L7.46546 6.14662C7.1735 6.37229 6.76596 6.37229 6.47393 6.14662L2.87588 3.36637C2.66327 3.20208 2.35775 3.24126 2.19347 3.45386C2.02919 3.66646 2.06836 3.97199 2.28097 4.13627L5.87906 6.91657C6.52148 7.41292 7.41798 7.41292 8.0604 6.91657L11.6585 4.13627Z" fill="#0A66C2"/>
</svg>
