<svg width="36" height="36" viewBox="0 0 36 36" fill="none" xmlns="http://www.w3.org/2000/svg">
<path d="M1.16133 19.7552C0.185726 18.7796 0.185726 17.1978 1.16133 16.2222L16.1631 1.22039C17.1388 0.244793 18.7205 0.244793 19.6961 1.22039L34.6979 16.2222C35.6735 17.1978 35.6735 18.7796 34.6979 19.7552L19.6961 34.757C18.7205 35.7326 17.1388 35.7326 16.1631 34.757L1.16133 19.7552Z" fill="#EE513B"/>
<path d="M13.1157 4.31558L11.5966 5.83476L15.5202 9.7584C15.3615 10.0989 15.2729 10.4787 15.2729 10.8792C15.2729 12.0162 15.9872 12.9863 16.9916 13.3652V22.9634C15.9872 23.3423 15.2729 24.3124 15.2729 25.4495C15.2729 26.9165 16.4621 28.1057 17.9291 28.1057C19.3961 28.1057 20.5854 26.9165 20.5854 25.4495C20.5854 24.4187 19.9982 23.5249 19.1401 23.0847V13.3783L22.8908 17.1289C22.7398 17.4626 22.6558 17.8329 22.6558 18.2229C22.6558 19.6899 23.845 20.8792 25.312 20.8792C26.779 20.8792 27.9683 19.6899 27.9683 18.2229C27.9683 16.7559 26.779 15.5667 25.312 15.5667C25.0269 15.5667 24.7524 15.6116 24.4949 15.6947L20.4667 11.6666C20.5439 11.4178 20.5854 11.1533 20.5854 10.8792C20.5854 9.41216 19.3961 8.22291 17.9291 8.22291C17.655 8.22291 17.3906 8.26445 17.1417 8.34156L13.1157 4.31558Z" fill="white"/>
</svg>
