<svg width="21" height="21" viewBox="0 0 21 21" fill="none" xmlns="http://www.w3.org/2000/svg">
<path d="M0.847741 11.4981C0.290255 10.9406 0.290255 10.0368 0.847741 9.47927L9.42021 0.906808C9.97771 0.349322 10.8816 0.349322 11.4391 0.906808L20.0115 9.47927C20.569 10.0368 20.569 10.9406 20.0115 11.4981L11.4391 20.0706C10.8816 20.6281 9.97771 20.6281 9.42021 20.0706L0.847741 11.4981Z" fill="#EE513B"/>
<path d="M7.67883 2.67549L6.81076 3.54359L9.05283 5.78567C8.96212 5.98026 8.91148 6.19727 8.91148 6.42612C8.91148 7.07584 9.31969 7.6302 9.89362 7.8467V13.3314C9.31969 13.5479 8.91148 14.1023 8.91148 14.752C8.91148 15.5903 9.59105 16.2698 10.4293 16.2698C11.2676 16.2698 11.9472 15.5903 11.9472 14.752C11.9472 14.163 11.6117 13.6523 11.1213 13.4007V7.8542L13.2646 9.99741C13.1783 10.1881 13.1303 10.3997 13.1303 10.6226C13.1303 11.4608 13.8098 12.1404 14.6481 12.1404C15.4864 12.1404 16.166 11.4608 16.166 10.6226C16.166 9.78427 15.4864 9.1047 14.6481 9.1047C14.4852 9.1047 14.3283 9.13034 14.1812 9.17784L11.8794 6.87605C11.9235 6.73391 11.9472 6.58277 11.9472 6.42612C11.9472 5.58782 11.2676 4.90825 10.4293 4.90825C10.2727 4.90825 10.1216 4.93199 9.97941 4.97605L7.67883 2.67549Z" fill="white"/>
</svg>
