<svg width="17" height="15" viewBox="0 0 17 15" fill="none" xmlns="http://www.w3.org/2000/svg">
<path fill-rule="evenodd" clip-rule="evenodd" d="M8.61225 0C4.36369 0 0.922546 3.44114 0.922546 7.6897C0.922546 11.0924 3.12372 13.9664 6.18038 14.9853C6.56487 15.0526 6.70905 14.8219 6.70905 14.62C6.70905 14.4374 6.69944 13.8319 6.69944 13.1878C4.7674 13.5435 4.26757 12.7168 4.11377 12.2843C4.02726 12.0632 3.65239 11.3808 3.32558 11.1981C3.05644 11.0539 2.67195 10.6983 3.31597 10.6887C3.92153 10.6791 4.35408 11.2462 4.49826 11.4769C5.19033 12.6399 6.29573 12.3131 6.73788 12.1113C6.80517 11.6115 7.00702 11.275 7.2281 11.0828C5.51714 10.8905 3.72929 10.2273 3.72929 7.28599C3.72929 6.44974 4.02726 5.75767 4.51748 5.21939C4.44059 5.02714 4.17145 4.23895 4.59438 3.18161C4.59438 3.18161 5.23839 2.97976 6.70905 3.96981C7.32422 3.79679 7.97785 3.71028 8.63147 3.71028C9.2851 3.71028 9.93872 3.79679 10.5539 3.96981C12.0246 2.97015 12.6686 3.18161 12.6686 3.18161C13.0915 4.23895 12.8224 5.02714 12.7455 5.21939C13.2357 5.75767 13.5337 6.44013 13.5337 7.28599C13.5337 10.2369 11.7362 10.8905 10.0252 11.0828C10.304 11.3231 10.5443 11.7845 10.5443 12.5054C10.5443 13.5339 10.5347 14.3605 10.5347 14.62C10.5347 14.8219 10.6789 15.0622 11.0633 14.9853C12.5899 14.4699 13.9164 13.4889 14.8561 12.1801C15.7959 10.8714 16.3016 9.30093 16.302 7.6897C16.302 3.44114 12.8608 0 8.61225 0Z" fill="#0A66C2"/>
</svg>
