<svg width="25" height="36" viewBox="0 0 25 36" fill="none" xmlns="http://www.w3.org/2000/svg">
<path d="M24.8818 6.93993L22.6228 32.2465L12.4685 35.0616L2.34218 32.2505L0.0855713 6.93993H24.8818Z" fill="#E44D26"/>
<path d="M12.4837 32.9099L20.6889 30.6351L22.6194 9.00946H12.4837V32.9099Z" fill="#F16529"/>
<path d="M8.09231 15.218H12.4837V12.1137H4.69977L4.77407 12.9465L5.53703 21.501H12.4837V18.3968H8.376L8.09231 15.218Z" fill="#EBEBEB"/>
<path d="M8.79188 23.0531H5.67572L6.11062 27.9272L12.4694 29.6925L12.4837 29.6885V26.4588L12.4701 26.4624L9.01289 25.5289L8.79188 23.0531Z" fill="#EBEBEB"/>
<path d="M2.39264 0.061615H3.97017V1.62021H5.41324V0.061615H6.99083V4.78142H5.4133V3.20095H3.97024V4.78142H2.39271L2.39264 0.061615Z" fill="black"/>
<path d="M9.06536 1.62677H7.67657V0.061615H12.0324V1.62677H10.643V4.78142H9.06543L9.06536 1.62677Z" fill="black"/>
<path d="M12.7237 0.061615H14.3687L15.3805 1.72001L16.3913 0.061615H18.0369V4.78142H16.4659V2.44202L15.3805 4.12018H15.3534L14.2673 2.44202V4.78142H12.7237V0.061615Z" fill="black"/>
<path d="M18.822 0.061615H20.4V3.22132H22.6184V4.78142H18.822V0.061615Z" fill="black"/>
<path d="M12.473 21.5009H16.2955L15.9352 25.5269L12.473 26.4614V29.6909L18.8368 27.9272L18.8835 27.4027L19.613 19.2303L19.6887 18.3967H12.473V21.5009Z" fill="white"/>
<path d="M12.473 15.2104V15.218H19.9712L20.0335 14.5202L20.1749 12.9465L20.2491 12.1137H12.473V15.2104Z" fill="white"/>
</svg>
