<svg width="16" height="21" viewBox="0 0 16 21" fill="none" xmlns="http://www.w3.org/2000/svg">
<path d="M15.0439 4.41916L13.753 18.8801L7.95058 20.4887L2.1641 18.8823L0.874603 4.41916H15.0439Z" fill="#E44D26"/>
<path d="M7.95924 19.2591L12.6479 17.9592L13.751 5.60175H7.95924V19.2591Z" fill="#F16529"/>
<path d="M5.44989 9.14948H7.95926V7.37561H3.51129L3.55375 7.85151L3.98973 12.7398H7.95926V10.9659H5.61199L5.44989 9.14948Z" fill="#EBEBEB"/>
<path d="M5.84963 13.6267H4.06897L4.31749 16.4119L7.95108 17.4206L7.95924 17.4183V15.5728L7.95147 15.5749L5.97592 15.0414L5.84963 13.6267Z" fill="#EBEBEB"/>
<path d="M2.19292 0.488693H3.09436V1.37932H3.91897V0.488693H4.82046V3.18572H3.91901V2.2826H3.0944V3.18572H2.19296L2.19292 0.488693Z" fill="black"/>
<path d="M6.00589 1.38307H5.2123V0.488693H7.70136V1.38307H6.90741V3.18572H6.00593L6.00589 1.38307Z" fill="black"/>
<path d="M8.09641 0.488693H9.03637L9.61457 1.43635L10.1922 0.488693H11.1325V3.18572H10.2348V1.84893L9.61457 2.80787H9.59906L8.97844 1.84893V3.18572H8.09641V0.488693Z" fill="black"/>
<path d="M11.5811 0.488693H12.4828V2.29424H13.7505V3.18572H11.5811V0.488693Z" fill="black"/>
<path d="M7.95312 12.7397H10.1374L9.93152 15.0403L7.95312 15.5743V17.4197L11.5896 16.4119L11.6163 16.1122L12.0331 11.4422L12.0764 10.9659H7.95312V12.7397Z" fill="white"/>
<path d="M7.95312 9.14514V9.14948H12.2378L12.2734 8.75077L12.3542 7.85151L12.3966 7.37561H7.95312V9.14514Z" fill="white"/>
</svg>
