<svg width="36" height="36" viewBox="0 0 36 36" fill="none" xmlns="http://www.w3.org/2000/svg">
<path d="M35.6635 0.597046H0.663513V35.597H35.6635V0.597046Z" fill="#FFCA28"/>
<path d="M21.9135 29.7069L24.4904 28.0017C24.6924 28.6362 25.9713 30.1431 27.5866 30.1431C29.202 30.1431 29.952 29.2608 29.952 28.6758C29.952 27.0818 28.3025 26.5198 27.5103 26.2499C27.381 26.2059 27.2748 26.1697 27.202 26.1381C27.1646 26.1218 27.1083 26.1002 27.0359 26.0726C26.1548 25.7359 22.9039 24.4939 22.9039 20.8937C22.9039 16.9283 26.7308 16.4723 27.5963 16.4723C28.1624 16.4723 30.8846 16.5417 32.2404 19.0894L29.7404 20.8343C29.1924 19.7239 28.2818 19.3572 27.7213 19.3572C26.3366 19.3572 26.0481 20.3722 26.0481 20.8343C26.0481 22.1308 27.5525 22.7119 28.8226 23.2026C29.155 23.3309 29.4713 23.4531 29.7404 23.5803C31.125 24.2346 33.1635 25.3053 33.1635 28.6758C33.1635 30.3641 31.7475 33.0973 28.1828 33.0973C23.3943 33.0973 22.125 30.2224 21.9135 29.7069Z" fill="#3E3E3E"/>
<path d="M9.41351 30.0454L12.0994 28.3412C12.3098 28.9753 13.1276 30.1445 14.3141 30.1445C15.5008 30.1445 16.1081 28.9258 16.1081 28.3412V16.8473H19.4113V28.3412C19.4648 29.9265 18.5855 33.0973 14.705 33.0973C11.1373 33.0973 9.65404 30.9769 9.41351 30.0454Z" fill="#3E3E3E"/>
</svg>
