<svg width="21" height="21" viewBox="0 0 21 21" fill="none" xmlns="http://www.w3.org/2000/svg">
<path d="M20.6635 0.597046H0.663513V20.597H20.6635V0.597046Z" fill="#FFCA28"/>
<path d="M12.8064 17.2313L14.2789 16.2568C14.3943 16.6194 15.1251 17.4805 16.0482 17.4805C16.9712 17.4805 17.3998 16.9763 17.3998 16.6421C17.3998 15.7312 16.4572 15.4101 16.0045 15.2558C15.9307 15.2307 15.8699 15.21 15.8284 15.1919C15.807 15.1826 15.7748 15.1703 15.7334 15.1545C15.2299 14.9621 13.3723 14.2524 13.3723 12.1951C13.3723 9.9292 15.5591 9.66862 16.0537 9.66862C16.3772 9.66862 17.9327 9.70827 18.7074 11.1641L17.2789 12.1612C16.9657 11.5267 16.4454 11.3171 16.1251 11.3171C15.3339 11.3171 15.169 11.8971 15.169 12.1612C15.169 12.9021 16.0287 13.2341 16.7544 13.5145C16.9444 13.5878 17.1251 13.6576 17.2789 13.7303C18.0701 14.1042 19.2349 14.7161 19.2349 16.6421C19.2349 17.6068 18.4258 19.1686 16.3888 19.1686C13.6525 19.1686 12.9272 17.5258 12.8064 17.2313Z" fill="#3E3E3E"/>
<path d="M5.66351 17.4247L7.1983 16.4508C7.31851 16.8132 7.78587 17.4813 8.46387 17.4813C9.14194 17.4813 9.48901 16.7849 9.48901 16.4508V9.8829H11.3765V16.4508C11.4071 17.3568 10.9047 19.1686 8.68723 19.1686C6.64851 19.1686 5.80096 17.957 5.66351 17.4247Z" fill="#3E3E3E"/>
</svg>
