<svg width="16" height="15" viewBox="0 0 16 15" fill="none" xmlns="http://www.w3.org/2000/svg">
<path d="M13.3894 12.7812H11.1669V9.29998C11.1669 8.46999 11.1519 7.40124 10.0107 7.40124C8.85317 7.40124 8.67567 8.30624 8.67567 9.23873V12.7812H6.45318V5.6225H8.58692V6.60124H8.61692C9.05192 5.85875 9.86192 5.41375 10.7219 5.445C12.9744 5.445 13.3907 6.92624 13.3907 8.85499L13.3894 12.78V12.7812ZM3.94569 4.64375C3.60428 4.64211 3.27731 4.50585 3.03578 4.26455C2.79425 4.02325 2.65766 3.69641 2.65569 3.35501C2.65569 2.64751 3.23819 2.06501 3.94569 2.06501C4.65319 2.06501 5.23443 2.64751 5.23568 3.35501C5.23568 4.0625 4.65319 4.64375 3.94569 4.64375ZM5.05693 12.7812H2.83194V5.6225H5.05693V12.7812ZM14.4956 1.8579e-05H1.71445C1.42464 -0.0016647 1.14587 0.111093 0.938728 0.313788C0.731586 0.516483 0.612806 0.792736 0.6082 1.08251V13.9175C0.612806 14.2072 0.731586 14.4835 0.938728 14.6862C1.14587 14.8889 1.42464 15.0016 1.71445 15H14.4969C14.7874 15.0023 15.067 14.8899 15.2751 14.6872C15.4832 14.4845 15.6029 14.2079 15.6081 13.9175V1.08126C15.6029 0.79105 15.4831 0.514677 15.275 0.312378C15.0668 0.110079 14.7871 -0.00174781 14.4969 0.00126848L14.4956 1.8579e-05Z" fill="#0A66C2"/>
</svg>
