<svg width="17" height="36" viewBox="0 0 17 36" fill="none" xmlns="http://www.w3.org/2000/svg">
<path d="M9.05222 35.5971L8.11347 35.2858C8.11347 35.2858 8.23847 30.5358 6.51972 30.2021C5.39472 28.8921 6.68597 -25.7242 10.7985 30.0158C10.0182 30.4116 9.42116 31.0937 9.13222 31.9196C8.97736 33.1392 8.95055 34.3718 9.05222 35.5971Z" fill="url(#paint0_linear_22_17)"/>
<path d="M9.55972 31.0083C12.0592 29.1268 13.9734 26.5745 15.0797 23.6482C16.1861 20.7218 16.4392 17.5416 15.8097 14.477C13.9722 6.37079 9.62097 3.70579 9.15222 2.68829C8.74779 2.05471 8.40258 1.38521 8.12097 0.688293L8.46722 23.2745C8.46722 23.2745 7.74972 30.177 9.55972 31.0083Z" fill="url(#paint1_linear_22_17)"/>
<path d="M7.63598 31.3083C7.63598 31.3083 -0.0152681 26.097 0.427232 16.8783C0.46851 14.0991 1.10574 11.3611 2.29587 8.84932C3.48601 6.33751 5.20133 4.11036 7.32598 2.3183C7.57427 2.10735 7.77153 1.84289 7.90295 1.54477C8.03436 1.24665 8.09651 0.922631 8.08473 0.597046C8.56098 1.62205 8.48348 15.9008 8.53348 17.5708C8.72723 24.067 8.17223 30.082 7.63598 31.3083Z" fill="url(#paint2_linear_22_17)"/>
<defs>
<linearGradient id="paint0_linear_22_17" x1="2.74177" y1="18.4124" x2="13.5314" y2="22.0738" gradientUnits="userSpaceOnUse">
<stop offset="0.231" stop-color="#999875"/>
<stop offset="0.563" stop-color="#9B9977"/>
<stop offset="0.683" stop-color="#A09F7E"/>
<stop offset="0.768" stop-color="#A9A889"/>
<stop offset="0.837" stop-color="#B7B69A"/>
<stop offset="0.896" stop-color="#C9C7B0"/>
<stop offset="0.948" stop-color="#DEDDCB"/>
<stop offset="0.994" stop-color="#F8F6EB"/>
<stop offset="1" stop-color="#FBF9EF"/>
</linearGradient>
<linearGradient id="paint1_linear_22_17" x1="6.69841" y1="0.526901" x2="11.4684" y2="30.3131" gradientUnits="userSpaceOnUse">
<stop stop-color="#48A547"/>
<stop offset="1" stop-color="#3F9143"/>
</linearGradient>
<linearGradient id="paint2_linear_22_17" x1="-0.230928" y1="17.7908" x2="12.5698" y2="13.5038" gradientUnits="userSpaceOnUse">
<stop stop-color="#41A247"/>
<stop offset="0.352" stop-color="#4BA74B"/>
<stop offset="0.956" stop-color="#67B554"/>
<stop offset="1" stop-color="#69B655"/>
</linearGradient>
</defs>
</svg>
