<svg width="19" height="21" viewBox="0 0 19 21" fill="none" xmlns="http://www.w3.org/2000/svg">
<path d="M10.5518 1.06225C10.0448 0.777114 9.38381 0.778392 8.87638 1.06225C6.33495 2.46479 3.79346 3.86774 1.25156 5.26964C0.756938 5.52985 0.42333 6.06101 0.428652 6.61231V15.0866C0.42508 15.6487 0.775888 16.185 1.28327 16.4416C2.01338 16.83 2.72273 17.2579 3.46605 17.6205C4.32467 18.0424 5.3989 18.1357 6.26802 17.6957C6.97352 17.331 7.28688 16.52 7.28595 15.7746C7.29166 12.9779 7.28688 10.1811 7.28816 7.38431C7.30495 7.26003 7.21159 7.12717 7.07602 7.13017C6.75123 7.12503 6.42602 7.12717 6.10123 7.12931C5.97852 7.11774 5.85873 7.21967 5.86802 7.34303C5.86366 10.1217 5.86888 12.9013 5.86538 15.6805C5.87245 16.0649 5.61273 16.4343 5.24226 16.5642C4.38659 16.8641 1.94429 15.2783 1.94429 15.2783C1.85466 15.2368 1.79775 15.1396 1.80653 15.043C1.80653 12.2472 1.80697 9.45124 1.80653 6.65581C1.79421 6.5431 1.86367 6.4416 1.96717 6.39558C4.50025 5.00131 7.03202 3.60355 9.56509 2.20842C9.65309 2.1497 9.77574 2.14988 9.86352 2.20885C12.3966 3.60355 14.9288 5.00003 17.4623 6.39437C17.5662 6.44031 17.6327 6.54352 17.6221 6.65581C17.6217 9.45124 17.623 12.2472 17.6212 15.0427C17.6287 15.1416 17.5776 15.2375 17.4852 15.2809C14.9758 16.6676 12.4378 18.0096 9.95109 19.4366C9.84259 19.4988 9.71967 19.5693 9.59809 19.5007C8.94417 19.139 8.29816 18.7632 7.64638 18.398C7.57552 18.3538 7.48531 18.3348 7.41138 18.3843C7.11916 18.5383 6.84431 18.663 6.50873 18.7959C6.03745 18.9825 6.11273 19.0587 6.53781 19.3064C7.30002 19.7377 8.06352 20.1674 8.82574 20.5992C9.32752 20.9123 10.0017 20.9346 10.5197 20.6452C13.0615 19.2445 15.6026 17.842 18.145 16.4412C18.651 16.1832 19.0035 15.649 19 15.0865V6.61231C19.0049 6.0722 18.684 5.5505 18.2043 5.28645C15.654 3.87707 13.1025 2.47076 10.5518 1.06225Z" fill="#8CC84B"/>
<path d="M14.3871 7.42475C13.3894 6.89103 12.2026 6.8626 11.0939 6.93239C10.293 7.01153 9.45066 7.23253 8.86716 7.80668C8.26866 8.38382 8.13837 9.31582 8.42266 10.0692C8.62637 10.6017 9.13916 10.9479 9.66944 11.131C10.3525 11.3722 11.0699 11.4467 11.7876 11.5213C12.4422 11.5893 13.0969 11.6574 13.7261 11.8519C13.9831 11.937 14.2824 12.0673 14.3611 12.347C14.4338 12.6781 14.3541 13.063 14.0852 13.2931C13.2312 13.969 10.8557 13.8655 10.0119 13.3335C9.67073 13.1068 9.52373 12.7056 9.46394 12.3232C9.4573 12.2041 9.36137 12.0948 9.23201 12.1039C8.90809 12.1 8.58416 12.1009 8.26023 12.1035C8.14723 12.094 8.02973 12.1744 8.02351 12.2897C7.95694 14.041 9.5653 14.8044 11.0742 14.9725C11.9363 15.0546 12.8173 15.0499 13.6662 14.8649C14.3044 14.7196 14.9442 14.452 15.3835 13.9605C15.9252 13.3632 16.0317 12.4738 15.7888 11.7297C15.6031 11.1745 15.0723 10.8184 14.5297 10.6352C13.7919 10.3822 12.9174 10.2462 12.2492 10.1825C11.2778 10.09 10.1235 10.1278 9.84859 9.48953C9.73894 9.15532 9.83223 8.74032 10.1394 8.53475C10.952 7.98353 12.6059 8.05675 13.4475 8.46853C13.8339 8.66203 14.0579 9.05946 14.1503 9.46068C14.1674 9.57853 14.2467 9.70153 14.3832 9.69639C14.7049 9.70282 15.0266 9.6981 15.3482 9.69853C15.4587 9.70625 15.5797 9.64389 15.6013 9.53075C15.5877 8.69218 15.1594 7.83375 14.3871 7.42475Z" fill="#8CC84B"/>
</svg>
