<svg width="33" height="36" viewBox="0 0 33 36" fill="none" xmlns="http://www.w3.org/2000/svg">
<path d="M17.9981 1.13195C17.1108 0.632959 15.9541 0.635197 15.0661 1.13195C10.6186 3.58639 6.17097 6.04156 1.72264 8.49488C0.857051 8.95024 0.273237 9.87978 0.28255 10.8446V25.6746C0.2763 26.6582 0.890213 27.5967 1.77813 28.0458C3.05583 28.7256 4.29719 29.4743 5.59799 30.1088C7.10058 30.8472 8.98048 31.0104 10.5014 30.2404C11.7361 29.6023 12.2844 28.1829 12.2828 26.8786C12.2928 21.9843 12.2844 17.0899 12.2867 12.1956C12.3161 11.9781 12.1527 11.7456 11.9154 11.7508C11.3471 11.7418 10.7779 11.7456 10.2096 11.7493C9.99482 11.7291 9.78519 11.9074 9.80144 12.1233C9.79382 16.9861 9.80294 21.8503 9.79682 26.7138C9.80919 27.3866 9.35469 28.0331 8.70636 28.2603C7.20894 28.7852 2.93491 26.0101 2.93491 26.0101C2.77806 25.9374 2.67846 25.7673 2.69384 25.5983C2.69384 20.7056 2.6946 15.8127 2.69384 10.9207C2.67228 10.7234 2.79384 10.5458 2.97496 10.4653C7.40785 8.0253 11.8384 5.57923 16.2713 3.13775C16.4253 3.03499 16.6399 3.0353 16.7936 3.1385C21.2265 5.57923 25.6578 8.02307 30.0915 10.4632C30.2732 10.5436 30.3896 10.7242 30.3711 10.9207C30.3703 15.8127 30.3726 20.7056 30.3696 25.5977C30.3827 25.7708 30.2932 25.9386 30.1316 26.0146C25.7401 28.4413 21.2986 30.7898 16.9468 33.2871C16.7569 33.3959 16.5418 33.5193 16.3291 33.3993C15.1847 32.7663 14.0542 32.1087 12.9136 31.4696C12.7896 31.3922 12.6317 31.3589 12.5023 31.4456C11.9909 31.7151 11.5099 31.9333 10.9227 32.1658C10.0979 32.4923 10.2297 32.6258 10.9736 33.0592C12.3074 33.8141 13.6436 34.5659 14.9774 35.3216C15.8556 35.8696 17.0354 35.9086 17.9418 35.4022C22.3901 32.9508 26.837 30.4966 31.2861 28.0452C32.1716 27.5936 32.7886 26.6588 32.7823 25.6744V10.8446C32.791 9.89935 32.2295 8.98639 31.39 8.52429C26.927 6.05789 22.4618 3.59685 17.9981 1.13195Z" fill="#8CC84B"/>
<path d="M24.7098 12.2663C22.9639 11.3323 20.8869 11.2826 18.9468 11.4047C17.5452 11.5432 16.0711 11.9299 15.0499 12.9347C14.0026 13.9447 13.7746 15.5757 14.2721 16.8942C14.6286 17.8259 15.5259 18.4318 16.4539 18.7523C17.6493 19.1743 18.9048 19.3048 20.1607 19.4353C21.3062 19.5543 22.4521 19.6734 23.5531 20.0138C24.0028 20.1628 24.5266 20.3908 24.6643 20.8802C24.7916 21.4597 24.6521 22.1333 24.1816 22.536C22.6871 23.7188 18.5298 23.5376 17.0532 22.6066C16.4562 22.21 16.1989 21.5078 16.0943 20.8387C16.0827 20.6302 15.9148 20.439 15.6884 20.4548C15.1216 20.4481 14.5547 20.4496 13.9878 20.4541C13.7901 20.4374 13.5844 20.5782 13.5736 20.7801C13.4571 23.8447 16.2717 25.1807 18.9123 25.4748C20.4209 25.6186 21.9627 25.6103 23.4483 25.2866C24.5651 25.0323 25.6848 24.5641 26.4536 23.704C27.4016 22.6586 27.5879 21.1022 27.1628 19.8001C26.8378 18.8284 25.9089 18.2052 24.9594 17.8846C23.6682 17.4418 22.1379 17.2038 20.9684 17.0924C19.2686 16.9306 17.2486 16.9967 16.7674 15.8797C16.5756 15.2948 16.7388 14.5686 17.2763 14.2088C18.6984 13.2442 21.5928 13.3723 23.0656 14.0929C23.7418 14.4316 24.1337 15.1271 24.2954 15.8292C24.3254 16.0354 24.4642 16.2507 24.7029 16.2417C25.2659 16.2529 25.8289 16.2447 26.3918 16.2454C26.5852 16.2589 26.7969 16.1498 26.8347 15.9518C26.8108 14.4843 26.0614 12.9821 24.7098 12.2663Z" fill="#8CC84B"/>
</svg>
