<svg width="16" height="16" viewBox="0 0 16 16" fill="none" xmlns="http://www.w3.org/2000/svg">
<path fill-rule="evenodd" clip-rule="evenodd" d="M1.86677 1.12773C2.03081 0.963927 2.2278 0.836861 2.44466 0.75495C2.66153 0.673038 2.89333 0.638151 3.1247 0.652601C3.35608 0.667051 3.58173 0.730507 3.78673 0.838764C3.99172 0.947022 4.17136 1.09761 4.31375 1.28055L5.99664 3.44252C6.30509 3.8391 6.41385 4.35569 6.29197 4.84321L5.77913 6.89643C5.75262 7.00277 5.75405 7.11417 5.78329 7.2198C5.81253 7.32542 5.86859 7.4217 5.94602 7.49927L8.24956 9.80281C8.32722 9.8804 8.42365 9.93655 8.52946 9.96579C8.63527 9.99504 8.74685 9.99638 8.85334 9.96969L10.9056 9.45686C11.1462 9.3967 11.3973 9.39203 11.64 9.44319C11.8826 9.49436 12.1105 9.60002 12.3063 9.75218L14.4683 11.4341C15.2455 12.0389 15.3168 13.1873 14.6211 13.8821L13.6517 14.8515C12.9579 15.5453 11.921 15.85 10.9544 15.5096C8.48037 14.6392 6.2341 13.2228 4.38219 11.3657C2.52519 9.51406 1.10886 7.26813 0.238254 4.79446C-0.101136 3.82879 0.203565 2.79093 0.897347 2.09715L1.86677 1.12773Z" fill="#0A66C2"/>
</svg>
