<svg width="24" height="21" viewBox="0 0 24 21" fill="none" xmlns="http://www.w3.org/2000/svg">
<path d="M13.6617 10.4911C13.6617 9.38773 12.7392 8.49312 11.601 8.49312C10.463 8.49312 9.54034 9.38773 9.54034 10.4911C9.54034 11.5947 10.463 12.4892 11.601 12.4892C12.7392 12.4892 13.6617 11.5947 13.6617 10.4911Z" fill="#53C1DE"/>
<path fill-rule="evenodd" clip-rule="evenodd" d="M18.2936 6.78174C18.7288 5.06718 19.2758 1.88772 17.3475 0.809781C15.4282 -0.263457 12.9306 1.79307 11.6117 3.02749C10.2967 1.80537 7.72895 -0.242365 5.80228 0.838996C3.88372 1.91583 4.47536 5.04258 4.92018 6.76789C3.13049 7.26074 0.062561 8.32227 0.062561 10.4911C0.062561 12.6538 3.1273 13.8087 4.90639 14.3011C4.45993 16.036 3.89791 19.118 5.81892 20.1925C7.75279 21.2737 10.3126 19.2747 11.6436 18.0267C12.9709 19.2684 15.4446 21.2805 17.3643 20.203C19.2899 19.1222 18.7884 15.9853 18.3436 14.25C20.0682 13.7566 23.1395 12.6268 23.1395 10.4911C23.1395 8.34312 20.0551 7.27297 18.2936 6.78174ZM18.075 13.3304C17.7829 12.434 17.3887 11.4807 16.9065 10.4959C17.3668 9.53435 17.7457 8.59335 18.0296 7.70266C19.3209 8.06566 22.1537 8.89527 22.1537 10.4911C22.1537 12.102 19.4353 12.9394 18.075 13.3304ZM16.8703 19.3758C15.4379 20.1797 13.3103 18.2555 12.3301 17.3411C12.9804 16.6515 13.6303 15.8498 14.2645 14.9596C15.3802 14.8637 16.4341 14.7067 17.3899 14.4925C17.703 15.72 18.3089 18.5683 16.8703 19.3758ZM6.3115 19.3644C4.87905 18.5635 5.53378 15.8132 5.86223 14.5353C6.80744 14.738 7.85379 14.8839 8.9721 14.9718C9.61048 15.8429 10.2792 16.6436 10.953 17.3448C10.1205 18.1257 7.75064 20.1689 6.3115 19.3644ZM1.04832 10.4911C1.04832 8.87427 3.86415 8.05066 5.1849 7.68858C5.47372 8.59927 5.85252 9.55151 6.30966 10.5144C5.8466 11.4917 5.46238 12.459 5.17091 13.3804C3.91155 13.0309 1.04832 12.109 1.04832 10.4911ZM6.29618 1.66623C7.73448 0.859012 9.96618 2.82491 10.9209 3.70976C10.2506 4.40777 9.58802 5.20243 8.9551 6.0685C7.86979 6.16604 6.83083 6.32266 5.87571 6.5325C5.51737 5.14097 4.85942 2.47257 6.29618 1.66623ZM14.9697 7.10743C15.706 7.1975 16.4115 7.31735 17.0739 7.46397C16.875 8.08197 16.6272 8.7282 16.3353 9.39066C15.9121 8.6122 15.4579 7.84935 14.9697 7.10743ZM11.612 4.39281C12.0667 4.8704 12.5221 5.40373 12.9701 5.98235C12.0614 5.94066 11.1513 5.9405 10.2426 5.98173C10.6909 5.40849 11.1503 4.87595 11.612 4.39281ZM6.87525 9.38997C6.58817 8.72981 6.34255 8.08074 6.14196 7.45389C6.80039 7.31104 7.50256 7.19427 8.2341 7.10566C7.74456 7.84597 7.2911 8.6085 6.87525 9.38997ZM8.2551 13.9448C7.49941 13.863 6.78661 13.7522 6.12838 13.6133C6.33213 12.9754 6.58316 12.3124 6.87638 11.638C7.29795 12.4276 7.75833 13.1975 8.2551 13.9448ZM11.6393 16.657C11.1721 16.1681 10.706 15.6274 10.2509 15.0459C11.1647 15.0807 12.0803 15.0807 12.9941 15.0412C12.5447 15.6334 12.0909 16.1748 11.6393 16.657ZM16.3446 11.6037C16.6531 12.2854 16.9131 12.9448 17.1196 13.5719C16.4505 13.72 15.7281 13.8392 14.9669 13.9277C15.4587 13.1717 15.9202 12.397 16.3446 11.6037ZM13.7143 14.0436C12.3165 14.1404 10.9099 14.1394 9.51164 14.0515C8.7171 12.9262 8.00979 11.7427 7.39925 10.5141C8.00687 9.28804 8.70902 8.10689 9.49979 6.98335C10.8991 6.88081 12.307 6.8805 13.7063 6.98397C14.4903 8.10743 15.1914 9.2855 15.8131 10.5005C15.1988 11.726 14.4929 12.9095 13.7143 14.0436ZM16.8551 1.63781C18.2938 2.44238 17.6534 5.29986 17.3391 6.54243C16.3817 6.3282 15.342 6.16881 14.2536 6.06973C13.6194 5.1943 12.9624 4.39826 12.3029 3.70927C13.2699 2.80536 15.4303 0.841112 16.8551 1.63781Z" fill="#53C1DE"/>
</svg>
