<svg width="42" height="36" viewBox="0 0 42 36" fill="none" xmlns="http://www.w3.org/2000/svg">
<path d="M24.4508 17.6219C24.4508 15.6909 22.8364 14.1254 20.8446 14.1254C18.8531 14.1254 17.2384 15.6909 17.2384 17.6219C17.2384 19.553 18.8531 21.1185 20.8446 21.1185C22.8364 21.1185 24.4508 19.553 24.4508 17.6219Z" fill="#53C1DE"/>
<path fill-rule="evenodd" clip-rule="evenodd" d="M32.5567 11.1304C33.3182 8.12996 34.2754 2.5659 30.9009 0.679511C27.5421 -1.19866 23.1713 2.40026 20.8633 4.5605C18.562 2.42178 14.0684 -1.16175 10.6968 0.730637C7.3393 2.6151 8.37467 8.08691 9.15309 11.1062C6.02115 11.9687 0.652267 13.8264 0.652267 17.6219C0.652267 21.4066 6.01556 23.4277 9.12897 24.2894C8.34766 27.3253 7.36414 32.719 10.7259 34.5993C14.1102 36.4913 18.5898 32.993 20.9192 30.8092C23.2419 32.9821 27.5708 36.5033 30.9302 34.6177C34.3002 32.7262 33.4225 27.2368 32.644 24.2C35.6621 23.3364 41.0369 21.3593 41.0369 17.6219C41.0369 13.8629 35.6392 11.9901 32.5567 11.1304ZM32.1741 22.5906C31.6629 21.0218 30.973 19.3535 30.1291 17.6302C30.9347 15.9475 31.5978 14.3008 32.0947 12.742C34.3544 13.3773 39.3118 14.8291 39.3118 17.6219C39.3118 20.4408 34.5546 21.9064 32.1741 22.5906ZM30.0657 33.1701C27.5592 34.5768 23.8359 31.2095 22.1205 29.6094C23.2585 28.4025 24.3957 26.9996 25.5056 25.4417C27.4581 25.2738 29.3025 24.9992 30.9752 24.6243C31.5231 26.7723 32.5833 31.757 30.0657 33.1701ZM11.5879 33.15C9.08112 31.7485 10.2269 26.9355 10.8017 24.6991C12.4558 25.054 14.2869 25.3092 16.244 25.4631C17.3611 26.9874 18.5313 28.3887 19.7106 29.6158C18.2536 30.9823 14.1064 34.5579 11.5879 33.15ZM2.37735 17.6219C2.37735 14.7924 7.30505 13.351 9.61636 12.7174C10.1218 14.3111 10.7847 15.9775 11.5847 17.6626C10.7743 19.3728 10.102 21.0656 9.59187 22.6781C7.388 22.0664 2.37735 20.4531 2.37735 17.6219ZM11.5611 2.17829C14.0781 0.765665 17.9836 4.20599 19.6544 5.75447C18.4813 6.97598 17.3218 8.36664 16.2142 9.88228C14.3149 10.053 12.4967 10.327 10.8253 10.6943C10.1982 8.2591 9.04677 3.5894 11.5611 2.17829ZM26.7398 11.7004C28.0283 11.858 29.2629 12.0678 30.4221 12.3243C30.0741 13.4058 29.6403 14.5367 29.1295 15.696C28.389 14.3337 27.5941 12.9988 26.7398 11.7004ZM20.8638 6.94981C21.6595 7.7856 22.4565 8.71893 23.2405 9.73151C21.6502 9.65855 20.0575 9.65828 18.4673 9.73043C19.2519 8.72725 20.0557 7.79531 20.8638 6.94981ZM12.5745 15.6948C12.0721 14.5396 11.6422 13.4037 11.2912 12.3067C12.4435 12.0567 13.6723 11.8524 14.9525 11.6973C14.0958 12.9928 13.3022 14.3273 12.5745 15.6948ZM14.9892 23.6658C13.6667 23.5227 12.4193 23.3287 11.2674 23.0856C11.624 21.9694 12.0633 20.809 12.5764 19.6288C13.3142 21.0107 14.1199 22.358 14.9892 23.6658ZM20.9116 28.4121C20.094 27.5566 19.2783 26.6104 18.4818 25.5927C20.081 25.6535 21.6834 25.6537 23.2825 25.5845C22.496 26.6208 21.7019 27.5683 20.9116 28.4121ZM29.1459 19.5688C29.6857 20.7618 30.1407 21.9158 30.5022 23.0132C29.3311 23.2723 28.067 23.481 26.7349 23.6359C27.5955 22.3129 28.4031 20.9572 29.1459 19.5688ZM24.5429 23.8387C22.0966 24.0081 19.6352 24.0063 17.1882 23.8525C15.7977 21.8832 14.5599 19.8122 13.4915 17.6621C14.5548 15.5165 15.7836 13.4494 17.1674 11.4833C19.6162 11.3038 22.0801 11.3033 24.5289 11.4843C25.9009 13.4504 27.1277 15.512 28.2157 17.6383C27.1407 19.7828 25.9054 21.854 24.5429 23.8387ZM30.0392 2.12856C32.5569 3.53656 31.4362 8.53714 30.8862 10.7116C29.2108 10.3367 27.3913 10.0578 25.4865 9.88443C24.3767 8.35243 23.227 6.95935 22.0728 5.75361C23.7651 4.17177 27.5459 0.734339 30.0392 2.12856Z" fill="#53C1DE"/>
</svg>
